# AST/ASF file generated using VICON BodyLanguage
# -----------------------------------------------
:version 1.10
:name VICON
:units
  mass 1.0
  length 0.45
  angle deg
:documentation
   .ast/.asf automatically generated from VICON data using
   VICON BodyBuilder and BodyLanguage model FoxedUp or BRILLIANT.MOD
:root
   order TX TY TZ RX RY RZ
   axis XYZ
   position 0 0 0  
   orientation 0 0 0 
:bonedata
  begin
     id 1 
     name lhipjoint
     direction 0.521689 -0.742065 0.420928 
     length 2.47002 
     axis 0 0 0  XYZ
  end
  begin
     id 2 
     name lfemur
     direction 0.34202 -0.939693 0  
     length 7.24654  
     axis 0 0 20  XYZ
    dof rx ry rz
    limits (-160.0 20.0)
           (-70.0 70.0)
           (-60.0 70.0)
  end
  begin
     id 3 
     name ltibia
     direction 0.34202 -0.939693 0   
     length 8.04849   
     axis 0 0 20   XYZ
    dof rx
    limits (-10.0 170.0)
  end
  begin
     id 4 
     name lfoot
     direction 0.0745411 -0.2048 0.975961   
     length 1.72367   
     axis -90 7.62852e-016 20   XYZ
    dof rx rz
    limits (-45.0 90.0)
           (-70.0 20.0)
  end
  begin
     id 5 
     name ltoes
     direction 1.53556e-011 -4.21901e-011 1   
     length 0.87311   
     axis -90 7.62852e-016 20   XYZ
    dof rx
    limits (-90.0 20.0)
  end
  begin
     id 6 
     name rhipjoint
     direction -0.52849 -0.738415 0.418857   
     length 2.48223  
     axis 0 0 0  XYZ 
  end
  begin
     id 7 
     name rfemur
     direction -0.34202 -0.939693 0   
     length 7.15571   
     axis 0 0 -20   XYZ
    dof rx ry rz
    limits (-160.0 20.0)
           (-70.0 70.0)
           (-70.0 60.0)
  end
  begin
     id 8 
     name rtibia
     direction -0.34202 -0.939693 0   
     length 7.81659   
     axis 0 0 -20   XYZ
    dof rx
    limits (-10.0 170.0)
 end
 begin
     id 9 
     name rfoot
     direction -0.0917348 -0.252039 0.963359   
     length 1.84382  
     axis -90 -7.62852e-016 -20   XYZ
    dof rx rz
    limits (-45.0 90.0)
           (-20.0 70.0)
  end
  begin
     id 10 
     name rtoes
     direction -1.53551e-011 -4.21879e-011 1   
     length 0.927771   
     axis -90 -7.62852e-016 -20   XYZ
    dof rx
    limits (-90.0 20.0)
  end
  begin
     id 11 
     name lowerback
     direction 0.00583058 0.999822 0.0179296   
     length 2.1429   
     axis 0 0 0   XYZ
    dof rx ry rz
    limits (-20.0 45.0)
           (-30.0 30.0)
           (-30.0 30.0)
  end
  begin
     id 12 
     name upperback
     direction -0.0137999 0.999752 -0.0175071   
     length 2.14252   
     axis 0 0 0   XYZ
    dof rx ry rz
    limits (-20.0 45.0)
           (-30.0 30.0)
           (-30.0 30.0)
  end
  begin
     id 13 
     name thorax
     direction -0.0158036 0.99955 -0.0254909   
     length 2.1383   
     axis 0 0 0   XYZ
    dof rx ry rz
    limits (-20.0 45.0)
           (-30.0 30.0)
           (-30.0 30.0)
  end
  begin
     id 14 
     name lowerneck
     direction -0.0101179 0.999403 -0.0330262   
     length 1.65808   
     axis 0 0 0   XYZ
    dof rx ry rz
    limits (-20.0 45.0)
           (-30.0 30.0)
           (-30.0 30.0)
  end
  begin
     id 15 
     name upperneck
     direction 0.0497734 0.995978 -0.074501   
     length 1.5897   
     axis 0 0 0   XYZ
    dof rx ry rz
    limits (-20.0 45.0)
           (-30.0 30.0)
           (-30.0 30.0)
  end
  begin
     id 16
     name head
     direction 0.0189524 0.999519 -0.0245438  
     length 1.74024  
     axis 0 0 0   XYZ
    dof rx ry rz
    limits (-20.0 45.0)
           (-30.0 30.0)
           (-30.0 30.0)
  end
  begin
     id 17 
     name lclavicle
     direction 0.945604 0.324422 0.0241537  
     length 3.59089  
     axis 0 0 0   XYZ
    dof ry rz
    limits (-20.0 10.0)
           (0.0 20.0)
  end
  begin
     id 18 
     name lhumerus
     direction 1 -4.48964e-011 -2.63524e-027   
     length 5.2391   
     axis 180 -30 -90   XYZ
    dof rx ry rz
    limits (-60.0 90.0)
           (-90.0 90.0)
           (-90.0 90.0)
  end
  begin
     id 19
     name lradius
     direction 1 -4.48969e-011 3.86978e-028   
     length 3.31467   
     axis 180 -30 -90   XYZ
    dof rx
    limits (-10.0 170.0)
  end
  begin
     id 20
     name lwrist
     direction 1 -4.48963e-011 7.20928e-028   
     length 1.65734   
     axis -5.52449e-016 90 90   XYZ
    dof ry
    limits (-180.0 0.0)
 end
  begin
     id 21 
     name lhand
     direction 1 -4.48964e-011 1.44186e-027   
     length 0.9659   
     axis -9.20027e-016 90 90   XYZ
    dof rx rz
    limits (-90.0 90.0)
           (-45.0 45.0)
  end
  begin
     id 22 
     name lfingers
     direction 1 -4.48965e-011 2.88371e-027   
     length 0.778733   
     axis -1.84005e-015 90 90   XYZ
    dof rx
    limits (0.0 90.0)
  end
  begin
     id 23
     name lthumb
     direction 0.707107 -6.34931e-011 0.707107   
     length 1.11811   
     axis -90 45 2.85299e-015   XYZ
    dof rx rz
    limits (-45.0 45.0)
           (-45.0 45.0)
  end
  begin
     id 24 
     name rclavicle
     direction -0.923762 0.370785 0.0958234   
     length 3.54196  
     axis 0 0 0   XYZ 
    dof ry rz
    limits (-10.0 20.0)
           (-20.0 0.0)
  end
  begin
     id 25 
     name rhumerus
     direction -1 -4.48966e-011 1.18702e-017  
     length 5.30252   
     axis 180 30 90   XYZ
    dof rx ry rz
    limits (-90.0 60.0)
           (-90.0 90.0)
           (-90.0 90.0)
  end
  begin
     id 26 
     name rradius
     direction -1 -4.48966e-011 4.46736e-027   
     length 3.67875   
     axis 180 30 90   XYZ
    dof rx
    limits (-10.0 170.0)
  end
  begin
     id 27 
     name rwrist
     direction -1 -4.48966e-011 7.20928e-028   
     length 1.83937   
     axis -5.52449e-016 -90 -90   XYZ
    dof ry
    limits (-180.0 0.0)
  end
  begin
     id 28
     name rhand
     direction -1 -4.48973e-011 1.44186e-027   
     length 0.594811   
     axis -9.20027e-016 -90 -90   XYZ
    dof rx rz
    limits (-90.0 90.0)
           (-45.0 45.0)
  end
  begin
     id 29
     name rfingers
     direction -1 -4.48963e-011 2.88371e-027   
     length 0.479552   
     axis -1.84005e-015 -90 -90   XYZ
    dof rx
    limits (0.0 90.0)
  end
  begin
     id 30
     name rthumb
     direction -0.707107 -6.34932e-011 0.707107   
     length 0.688544   
     axis -90 -45 -2.85299e-015   XYZ
    dof rx rz
    limits (-45.0 45.0)
           (-45.0 45.0)
  end
:hierarchy
  begin
    root lhipjoint rhipjoint lowerback
    lhipjoint lfemur
    lfemur ltibia
    ltibia lfoot
    lfoot ltoes
    rhipjoint rfemur
    rfemur rtibia
    rtibia rfoot
    rfoot rtoes
    lowerback upperback
    upperback thorax
    thorax lowerneck lclavicle rclavicle
    lowerneck upperneck
    upperneck head
    lclavicle lhumerus
    lhumerus lradius
    lradius lwrist
    lwrist lhand lthumb
    lhand lfingers
    rclavicle rhumerus
    rhumerus rradius
    rradius rwrist
    rwrist rhand rthumb
    rhand rfingers
  end

#!OML:ASF E:\acrobat2\Project_11_07_03\Capture day 1\Session 1\Acrobat.ASF
:FULLY-SPECIFIED
:DEGREES
176
root 6.01117 18.0273 -25.384 -155.068 86.832 -157.83
lowerback -7.48172 -1.47195 -2.96654
upperback 1.72427 -1.66635 -0.129486
thorax 6.08563 -0.924588 1.32025
lowerneck 10.884 -17.0095 -11.5894
upperneck -3.5348 -23.5235 18.977
head 0.898587 -12.2588 7.33206
rclavicle 5.46658e-015 3.57812e-015
rhumerus -37.838 0.924568 -81.9041
rradius 28.5508
rwrist -0.686848
rhand -5.39571 -40.3321
rfingers 7.12502
rthumb 20.4132 -69.2792
lclavicle 5.46658e-015 3.57812e-015
lhumerus -31.9861 -4.28438 82.9545
lradius 23.1011
lwrist 9.70241
lhand -9.28398 -11.2602
lfingers 7.12502
lthumb 16.6731 18.0438
rfemur 6.63262 13.5871 12.9115
rtibia -1.12436
rfoot -36.0171 -35.2692
rtoes 19.3161
lfemur 5.1476 -5.5389 -8.64153
ltibia 1.91167
lfoot -17.9578 0.113012
ltoes 32.9216
177
root 6.01141 18.0271 -25.3845 -153.276 86.7965 -156.037
lowerback -7.50101 -1.45581 -2.85457
upperback 1.72688 -1.65597 -0.117136
thorax 6.09567 -0.915879 1.27117
lowerneck 10.8723 -17.0291 -11.5683
upperneck -3.54534 -23.5463 18.9349
head 0.893003 -12.2691 7.31533
rclavicle -1.86361e-015 4.77083e-015
rhumerus -37.8398 0.773935 -81.8614
rradius 28.5425
rwrist -0.590196
rhand -5.71743 -40.1365
rfingers 7.12502
rthumb 20.104 -69.1163
lclavicle -1.86361e-015 4.77083e-015
lhumerus -31.9748 -4.2358 82.9014
lradius 23.0777
lwrist 9.78992
lhand -9.36861 -11.2678
lfingers 7.12502
lthumb 16.5916 18.043
rfemur 6.63943 13.7376 13.0872
rtibia -1.11094
rfoot -36.2105 -35.2752
rtoes 19.8723
lfemur 5.15887 -5.58478 -8.51883
ltibia 1.89763
lfoot -18.01 0.019167
ltoes 33.4522
178
root 6.01122 18.0276 -25.3852 -152.166 86.7556 -154.911
lowerback -7.50124 -1.43261 -2.75696
upperback 1.73952 -1.63375 -0.128256
thorax 6.10466 -0.901415 1.20748
lowerneck 10.8054 -17.0849 -11.462
upperneck -3.53668 -23.6056 18.8083
head 0.886424 -12.2928 7.25586
rclavicle -7.45443e-017 -3.18055e-015
rhumerus -37.8111 0.501777 -81.7666
rradius 28.5256
rwrist -0.389863
rhand -5.93694 -39.9891
rfingers 7.12502
rthumb 19.893 -68.9909
lclavicle -7.45443e-017 -3.18055e-015
lhumerus -31.9721 -4.38523 82.8873
lradius 23.0905
lwrist 9.97649
lhand -9.4934 -11.3132
lfingers 7.12502
lthumb 16.4714 18.0076
rfemur 6.66764 13.7966 13.2036
rtibia -1.11783
rfoot -36.4655 -35.1492
rtoes 20.7064
lfemur 5.17562 -5.66497 -8.4603
ltibia 1.89621
lfoot -18.03 0.0134789
ltoes 34.0828
179
root 6.01117 18.0278 -25.3858 -152.478 86.7385 -155.215
lowerback -7.503 -1.4172 -2.77603
upperback 1.74862 -1.6101 -0.143393
thorax 6.11438 -0.890309 1.20526
lowerneck 10.7571 -17.1207 -11.3637
upperneck -3.55723 -23.6364 18.6973
head 0.866894 -12.3044 7.20787
rclavicle 1.8313e-014 3.18055e-015
rhumerus -37.7508 0.452099 -81.734
rradius 28.4794
rwrist -0.418472
rhand -5.93467 -40.0347
rfingers 7.12502
rthumb 19.8952 -69.0363
lclavicle 1.8313e-014 3.18055e-015
lhumerus -31.985 -4.53764 82.9004
lradius 23.1247
lwrist 10.0743
lhand -9.51348 -11.3314
lfingers 7.12502
lthumb 16.4521 17.9909
rfemur 6.70984 13.9185 13.2359
rtibia -1.14501
rfoot -36.6801 -35.1813
rtoes 20.9511
lfemur 5.16202 -5.57772 -8.47147
ltibia 1.92873
lfoot -17.927 0.0736748
ltoes 33.5261
180
root 6.01144 18.0274 -25.3858 -153.068 86.754 -155.798
lowerback -7.50405 -1.40816 -2.85732
upperback 1.75482 -1.58959 -0.147153
thorax 6.12302 -0.883202 1.24949
lowerneck 10.8005 -17.1092 -11.3755
upperneck -3.63815 -23.6161 18.7366
head 0.839831 -12.2992 7.23066
rclavicle -3.85145e-015 -5.1684e-015
rhumerus -37.7622 0.564512 -81.7671
rradius 28.5061
rwrist -0.603266
rhand -5.97077 -40.188
rfingers 7.12502
rthumb 19.8605 -69.1933
lclavicle -3.85145e-015 -5.1684e-015
lhumerus -31.9591 -4.45397 82.8786
lradius 23.0766
lwrist 9.96358
lhand -9.57281 -11.3377
lfingers 7.12502
lthumb 16.395 17.9894
rfemur 6.74153 13.9502 13.1975
rtibia -1.16636
rfoot -36.7659 -35.1859
rtoes 21.1844
lfemur 5.15664 -5.45476 -8.50017
ltibia 1.95465
lfoot -17.8291 0.134517
ltoes 32.3464
181
root 6.01136 18.0271 -25.3858 -153.18 86.7802 -155.918
lowerback -7.5236 -1.36852 -2.86056
upperback 1.76716 -1.53149 -0.208066
thorax 6.14293 -0.853662 1.19463
lowerneck 10.8111 -17.1307 -11.2633
upperneck -3.7067 -23.6213 18.7717
head 0.810244 -12.3056 7.23242
rclavicle 1.18525e-014 5.56597e-015
rhumerus -37.8245 0.572644 -81.8594
rradius 28.5918
rwrist -0.782027
rhand -6.04363 -40.2068
rfingers 7.12502
rthumb 19.7904 -69.2192
lclavicle 1.18525e-014 5.56597e-015
lhumerus -31.8575 -4.27198 82.7251
lradius 22.9587
lwrist 9.65651
lhand -9.61228 -11.423
lfingers 7.12502
lthumb 16.357 17.9073
rfemur 6.72851 13.9111 13.152
rtibia -1.1629
rfoot -36.6866 -35.1588
rtoes 21.1715
lfemur 5.16615 -5.52756 -8.52527
ltibia 1.93003
lfoot -17.8862 0.181192
ltoes 32.2656
182
root 6.01142 18.027 -25.3851 -152.415 86.7949 -155.168
lowerback -7.56334 -1.31555 -2.78586
upperback 1.7757 -1.46231 -0.275093
thorax 6.16758 -0.815699 1.09074
lowerneck 10.7281 -17.2171 -10.9905
upperneck -3.70522 -23.6965 18.5819
head 0.778569 -12.3362 7.1354
rclavicle 2.98177e-015 6.75868e-015
rhumerus -37.8374 0.484367 -81.9218
rradius 28.5895
rwrist -0.865056
rhand -5.98687 -40.0365
rfingers 7.12502
rthumb 19.845 -69.0433
lclavicle 2.98177e-015 6.75868e-015
lhumerus -31.7824 -4.15717 82.5283
lradius 22.8713
lwrist 9.28951
lhand -9.51122 -11.5167
lfingers 7.12502
lthumb 16.4543 17.8055
rfemur 6.64629 13.5895 13.1048
rtibia -1.12533
rfoot -35.9237 -35.3154
rtoes 19.5434
lfemur 5.17472 -5.60971 -8.48129
ltibia 1.90337
lfoot -18.0344 0.156602
ltoes 33.0562
183
root 6.0113 18.0271 -25.3834 -151.913 86.8074 -154.672
lowerback -7.58819 -1.29933 -2.77942
upperback 1.78221 -1.43937 -0.289835
thorax 6.18711 -0.804081 1.07411
lowerneck 10.7199 -17.2183 -10.9713
upperneck -3.71 -23.6942 18.6052
head 0.778845 -12.3355 7.13928
rclavicle 2.80783e-015 -6.75868e-015
rhumerus -37.8036 0.45113 -81.9207
rradius 28.5405
rwrist -0.879801
rhand -5.83621 -40.0387
rfingers 7.12502
rthumb 19.9898 -69.0305
lclavicle 2.80783e-015 -6.75868e-015
lhumerus -31.7665 -4.12314 82.441
lradius 22.848
lwrist 9.14896
lhand -9.36647 -11.5123
lfingers 7.12502
lthumb 16.5936 17.7983
rfemur 6.55774 13.146 13.0165
rtibia -1.06973
rfoot -35.1022 -35.3585
rtoes 17.9106
lfemur 5.17174 -5.54233 -8.43107
ltibia 1.9135
lfoot -18.0478 0.154824
ltoes 33.1255
184
root 6.01036 18.0267 -25.3825 -152.596 86.812 -155.349
lowerback -7.57161 -1.29887 -2.8706
upperback 1.78365 -1.43031 -0.287119
thorax 6.18144 -0.802962 1.12962
lowerneck 10.8005 -17.1348 -11.2156
upperneck -3.70251 -23.6172 18.9485
head 0.829512 -12.3076 7.27471
rclavicle -3.08116e-015 5.1684e-015
rhumerus -37.7999 0.493716 -81.9068
rradius 28.5459
rwrist -0.93048
rhand -5.75201 -40.1805
rfingers 7.12502
rthumb 20.0707 -69.1638
lclavicle -3.08116e-015 5.1684e-015
lhumerus -31.742 -4.0513 82.4095
lradius 22.8085
lwrist 9.01666
lhand -9.22493 -11.4768
lfingers 7.12502
lthumb 16.7299 17.8224
rfemur 6.55436 13.0967 12.9512
rtibia -1.06603
rfoot -35.2168 -35.2085
rtoes 18.133
lfemur 5.15842 -5.47756 -8.46428
ltibia 1.9217
lfoot -17.9427 0.223965
ltoes 32.5724
185
root 6.00997 18.0259 -25.3829 -153.043 86.807 -155.782
lowerback -7.53623 -1.31433 -2.99253
upperback 1.77422 -1.44417 -0.227049
thorax 6.15699 -0.815243 1.25984
lowerneck 10.7819 -17.1312 -11.3855
upperneck -3.61177 -23.646 19.0024
head 0.8902 -12.3189 7.29845
rclavicle 5.49143e-015 -5.1684e-015
rhumerus -37.8079 0.632552 -81.8432
rradius 28.5419
rwrist -0.964916
rhand -5.76217 -40.0927
rfingers 7.12502
rthumb 20.061 -69.0771
lclavicle 5.49143e-015 -5.1684e-015
lhumerus -31.785 -4.00926 82.4829
lradius 22.7866
lwrist 8.88078
lhand -9.11689 -11.5472
lfingers 7.12502
lthumb 16.8339 17.7431
rfemur 6.61217 13.2962 12.978
rtibia -1.10872
rfoot -35.6713 -35.154
rtoes 19.0157
lfemur 5.1751 -5.53462 -8.50208
ltibia 1.89791
lfoot -17.9581 0.280539
ltoes 32.6348
